<mxfile host="app.diagrams.net" modified="2022-07-10T12:17:06.411Z" agent="5.0 (Windows NT 10.0; Win64; x64) AppleWebKit/537.36 (KHTML, like Gecko) Chrome/103.0.5060.114 Safari/537.36" etag="SwKen02jrloJ_tnRnPBB" version="18.1.3" type="github">
  <diagram id="N0aNFuahB9ZOPOvrSQRJ" name="Page-1">
    <mxGraphModel dx="526" dy="381" grid="1" gridSize="10" guides="1" tooltips="1" connect="1" arrows="1" fold="1" page="1" pageScale="1" pageWidth="1200" pageHeight="1920" math="0" shadow="0">
      <root>
        <mxCell id="0" />
        <mxCell id="1" parent="0" />
        <mxCell id="CJpy0ErXI01NrUza3y2k-22" style="edgeStyle=orthogonalEdgeStyle;rounded=0;orthogonalLoop=1;jettySize=auto;html=1;exitX=0.5;exitY=1;exitDx=0;exitDy=0;" edge="1" parent="1" source="CJpy0ErXI01NrUza3y2k-6" target="CJpy0ErXI01NrUza3y2k-16">
          <mxGeometry relative="1" as="geometry" />
        </mxCell>
        <mxCell id="CJpy0ErXI01NrUza3y2k-26" style="edgeStyle=orthogonalEdgeStyle;rounded=0;orthogonalLoop=1;jettySize=auto;html=1;" edge="1" parent="1" source="CJpy0ErXI01NrUza3y2k-6" target="CJpy0ErXI01NrUza3y2k-11">
          <mxGeometry relative="1" as="geometry" />
        </mxCell>
        <mxCell id="CJpy0ErXI01NrUza3y2k-6" value="Frontend" style="rounded=0;whiteSpace=wrap;html=1;labelBackgroundColor=default;labelBorderColor=default;" vertex="1" parent="1">
          <mxGeometry x="160" y="50" width="80" height="60" as="geometry" />
        </mxCell>
        <mxCell id="CJpy0ErXI01NrUza3y2k-25" style="edgeStyle=orthogonalEdgeStyle;rounded=0;orthogonalLoop=1;jettySize=auto;html=1;exitX=0.5;exitY=1;exitDx=0;exitDy=0;exitPerimeter=0;entryX=0.5;entryY=0;entryDx=0;entryDy=0;" edge="1" parent="1" source="CJpy0ErXI01NrUza3y2k-10" target="CJpy0ErXI01NrUza3y2k-15">
          <mxGeometry relative="1" as="geometry">
            <mxPoint x="560" y="160" as="targetPoint" />
          </mxGeometry>
        </mxCell>
        <mxCell id="CJpy0ErXI01NrUza3y2k-31" style="edgeStyle=orthogonalEdgeStyle;rounded=0;orthogonalLoop=1;jettySize=auto;html=1;entryX=1;entryY=0.5;entryDx=0;entryDy=0;" edge="1" parent="1" source="CJpy0ErXI01NrUza3y2k-10" target="CJpy0ErXI01NrUza3y2k-18">
          <mxGeometry relative="1" as="geometry" />
        </mxCell>
        <mxCell id="CJpy0ErXI01NrUza3y2k-10" value="Database" style="shape=cylinder3;html=1;boundedLbl=1;backgroundOutline=1;size=15;labelBackgroundColor=default;labelBorderColor=default;whiteSpace=wrap;spacingTop=-25;" vertex="1" parent="1">
          <mxGeometry x="520" y="50" width="80" height="60" as="geometry" />
        </mxCell>
        <mxCell id="CJpy0ErXI01NrUza3y2k-24" style="edgeStyle=orthogonalEdgeStyle;rounded=0;orthogonalLoop=1;jettySize=auto;html=1;exitX=0.5;exitY=1;exitDx=0;exitDy=0;entryX=0.5;entryY=0;entryDx=0;entryDy=0;" edge="1" parent="1" source="CJpy0ErXI01NrUza3y2k-11" target="CJpy0ErXI01NrUza3y2k-14">
          <mxGeometry relative="1" as="geometry" />
        </mxCell>
        <mxCell id="CJpy0ErXI01NrUza3y2k-27" style="edgeStyle=orthogonalEdgeStyle;rounded=0;orthogonalLoop=1;jettySize=auto;html=1;" edge="1" parent="1" source="CJpy0ErXI01NrUza3y2k-11" target="CJpy0ErXI01NrUza3y2k-18">
          <mxGeometry relative="1" as="geometry" />
        </mxCell>
        <mxCell id="CJpy0ErXI01NrUza3y2k-29" style="edgeStyle=orthogonalEdgeStyle;rounded=0;orthogonalLoop=1;jettySize=auto;html=1;" edge="1" parent="1" source="CJpy0ErXI01NrUza3y2k-11" target="CJpy0ErXI01NrUza3y2k-6">
          <mxGeometry relative="1" as="geometry" />
        </mxCell>
        <mxCell id="CJpy0ErXI01NrUza3y2k-11" value="Services" style="ellipse;whiteSpace=wrap;html=1;labelBackgroundColor=default;labelBorderColor=default;" vertex="1" parent="1">
          <mxGeometry x="280" y="50" width="80" height="60" as="geometry" />
        </mxCell>
        <mxCell id="CJpy0ErXI01NrUza3y2k-14" value="Java" style="rounded=0;whiteSpace=wrap;html=1;labelBackgroundColor=default;labelBorderColor=default;" vertex="1" parent="1">
          <mxGeometry x="280" y="170" width="80" height="60" as="geometry" />
        </mxCell>
        <mxCell id="CJpy0ErXI01NrUza3y2k-15" value="MySQL, MongoDB" style="rounded=0;whiteSpace=wrap;html=1;labelBackgroundColor=default;labelBorderColor=default;" vertex="1" parent="1">
          <mxGeometry x="520" y="170" width="80" height="60" as="geometry" />
        </mxCell>
        <mxCell id="CJpy0ErXI01NrUza3y2k-16" value="Angular" style="rounded=0;whiteSpace=wrap;html=1;labelBackgroundColor=default;labelBorderColor=default;" vertex="1" parent="1">
          <mxGeometry x="160" y="170" width="80" height="60" as="geometry" />
        </mxCell>
        <mxCell id="CJpy0ErXI01NrUza3y2k-17" value="nginx" style="rounded=0;whiteSpace=wrap;html=1;labelBackgroundColor=default;labelBorderColor=default;" vertex="1" parent="1">
          <mxGeometry x="400" y="170" width="80" height="60" as="geometry" />
        </mxCell>
        <mxCell id="CJpy0ErXI01NrUza3y2k-23" style="edgeStyle=orthogonalEdgeStyle;rounded=0;orthogonalLoop=1;jettySize=auto;html=1;exitX=0.5;exitY=1;exitDx=0;exitDy=0;" edge="1" parent="1" source="CJpy0ErXI01NrUza3y2k-18" target="CJpy0ErXI01NrUza3y2k-17">
          <mxGeometry relative="1" as="geometry" />
        </mxCell>
        <mxCell id="CJpy0ErXI01NrUza3y2k-28" value="" style="edgeStyle=orthogonalEdgeStyle;rounded=0;orthogonalLoop=1;jettySize=auto;html=1;" edge="1" parent="1" source="CJpy0ErXI01NrUza3y2k-18" target="CJpy0ErXI01NrUza3y2k-10">
          <mxGeometry relative="1" as="geometry" />
        </mxCell>
        <mxCell id="CJpy0ErXI01NrUza3y2k-30" style="edgeStyle=orthogonalEdgeStyle;rounded=0;orthogonalLoop=1;jettySize=auto;html=1;entryX=1;entryY=0.5;entryDx=0;entryDy=0;" edge="1" parent="1" source="CJpy0ErXI01NrUza3y2k-18" target="CJpy0ErXI01NrUza3y2k-11">
          <mxGeometry relative="1" as="geometry" />
        </mxCell>
        <mxCell id="CJpy0ErXI01NrUza3y2k-18" value="Server" style="rounded=0;whiteSpace=wrap;html=1;labelBackgroundColor=default;labelBorderColor=default;" vertex="1" parent="1">
          <mxGeometry x="400" y="50" width="80" height="60" as="geometry" />
        </mxCell>
        <mxCell id="CJpy0ErXI01NrUza3y2k-32" value="" style="whiteSpace=wrap;html=1;aspect=fixed;labelBackgroundColor=default;labelBorderColor=default;" vertex="1" parent="1">
          <mxGeometry x="160" y="280" width="170" height="170" as="geometry" />
        </mxCell>
        <mxCell id="CJpy0ErXI01NrUza3y2k-33" value="HTML, CSS, Material UI" style="whiteSpace=wrap;html=1;aspect=fixed;labelBackgroundColor=default;labelBorderColor=default;fillColor=#bac8d3;strokeColor=#23445d;" vertex="1" parent="1">
          <mxGeometry x="170" y="290" width="70" height="70" as="geometry" />
        </mxCell>
        <mxCell id="CJpy0ErXI01NrUza3y2k-34" value="JavaScript" style="rounded=0;whiteSpace=wrap;html=1;labelBackgroundColor=default;labelBorderColor=default;fillColor=#bac8d3;strokeColor=#23445d;" vertex="1" parent="1">
          <mxGeometry x="250" y="290" width="70" height="70" as="geometry" />
        </mxCell>
        <mxCell id="CJpy0ErXI01NrUza3y2k-35" value="GraphQL" style="rounded=0;whiteSpace=wrap;html=1;labelBackgroundColor=default;labelBorderColor=default;fillColor=#bac8d3;strokeColor=#23445d;" vertex="1" parent="1">
          <mxGeometry x="185" y="380" width="120" height="60" as="geometry" />
        </mxCell>
        <mxCell id="CJpy0ErXI01NrUza3y2k-36" value="nginx proxy server" style="rounded=0;whiteSpace=wrap;html=1;labelBackgroundColor=default;labelBorderColor=default;" vertex="1" parent="1">
          <mxGeometry x="360" y="310" width="120" height="60" as="geometry" />
        </mxCell>
        <mxCell id="CJpy0ErXI01NrUza3y2k-37" value="Database" style="rounded=0;whiteSpace=wrap;html=1;labelBackgroundColor=default;labelBorderColor=default;" vertex="1" parent="1">
          <mxGeometry x="520" y="310" width="120" height="60" as="geometry" />
        </mxCell>
      </root>
    </mxGraphModel>
  </diagram>
</mxfile>
